<?xml version="1.0" encoding="iso-8859-1"?>
<!-- Uploaded to: SVG Repo, www.svgrepo.com, Generator: SVG Repo Mixer Tools -->
<svg fill="#000000" height="800px" width="800px" version="1.1" id="Layer_1" xmlns="http://www.w3.org/2000/svg" xmlns:xlink="http://www.w3.org/1999/xlink" 
	 viewBox="0 0 330 330" xml:space="preserve">
<g>
	<g>
		<g>
			<path d="M178.443,149.724v-46.096c6.837,1.09,11.311,3.37,14.755,5.126c2.805,1.43,5.021,2.559,7.587,2.559
				c7.094,0,11.45-7.705,11.45-13.229c0-11.205-18.738-16.757-33.792-18.217v-5.978c0-5.439-5.33-9.23-10.113-9.23
				c-5.578,0-10.115,4.141-10.115,9.23v6.552c-25.787,3.301-40.455,18.691-40.455,42.769c0,30.254,21.93,39.008,40.455,45.558v55.79
				c-13.38-1.605-19.499-7.969-23.7-12.339c-2.732-2.842-5.313-5.526-9.086-5.526c-6.463,0-11.668,7.233-11.668,13.222
				c0,11.014,17.156,26.869,44.454,28.809v7.402c0,5.081,4.538,9.215,10.115,9.215c4.783,0,10.113-3.784,10.113-9.215v-8.622
				c24.092-4.77,37.795-21.984,37.795-47.823C216.238,166.005,193.237,155.249,178.443,149.724z M158.669,142.638
				c-11.634-4.816-16.907-9.862-16.907-20.757c0-9.705,5.682-15.699,16.907-17.868V142.638z M177.781,223.142v-46.473
				c9.107,5.008,14.229,11.57,14.229,24.349C192.01,212.599,187.341,219.886,177.781,223.142z"/>
			<path d="M164.999,0C74.018,0,0,74.019,0,165s74.018,165,164.999,165C255.981,330,330,255.981,330,165S255.981,0,164.999,0z
				 M164.999,300C90.56,300,30,239.439,30,165S90.56,30,164.999,30C239.439,30,300,90.561,300,165S239.439,300,164.999,300z"/>
		</g>
	</g>
</g>
</svg>