<?xml version="1.0" encoding="iso-8859-1"?>
<!-- Uploaded to: SVG Repo, www.svgrepo.com, Generator: SVG Repo Mixer Tools -->
<svg fill="#000000" height="800px" width="800px" version="1.1" id="Layer_1" xmlns="http://www.w3.org/2000/svg" xmlns:xlink="http://www.w3.org/1999/xlink" 
	 viewBox="0 0 512 512" xml:space="preserve">
<g>
	<g>
		<path d="M256,0C129.475,0,26.54,102.935,26.54,229.46v115.006c0,14.329,11.658,25.987,25.987,25.987h9.4v0.553
			c0,14.329,11.658,25.987,25.987,25.987h17.693c14.329,0,25.987-11.658,25.987-25.987v-106.16
			c0-14.329-11.658-25.987-25.987-25.987H87.914c-14.329,0-25.987,11.658-25.987,25.987v0.553H43.127v-35.94
			c0-117.378,95.494-212.873,212.873-212.873s212.873,95.494,212.873,212.873v35.94h-18.799v-0.553
			c0-14.329-11.658-25.987-25.987-25.987h-17.693c-14.329,0-25.987,11.658-25.987,25.987v106.16
			c0,14.329,11.658,25.987,25.987,25.987h17.693c14.329,0,25.987-11.658,25.987-25.987v-0.553h0.805
			c-4.105,57.601-50.612,103.657-108.401,107.057c-3.53-10.165-13.199-17.484-24.551-17.484h-26.54
			c-9.452,0-17.14,7.689-17.14,17.14v17.693c0,9.452,7.689,17.14,17.14,17.14h26.54c11.498,0,21.27-7.509,24.684-17.878
			c67.313-3.526,121.445-57.657,124.97-124.97c10.37-3.416,17.879-13.187,17.879-24.685V229.46C485.46,102.935,382.525,0,256,0z
			 M78.514,264.847c0-5.183,4.217-9.4,9.4-9.4h17.693c5.183,0,9.4,4.217,9.4,9.4v106.16c0,5.183-4.217,9.4-9.4,9.4H87.914
			c-5.183,0-9.4-4.217-9.4-9.4V264.847z M61.927,281.987v71.879h-9.4c-5.183,0-9.4-4.217-9.4-9.4v-62.479H61.927z M433.486,371.006
			c0,5.183-4.217,9.4-9.4,9.4h-17.693c-5.183,0-9.4-4.217-9.4-9.4v-106.16c0-5.183,4.216-9.4,9.4-9.4h17.693
			c5.183,0,9.4,4.217,9.4,9.4V371.006z M317.927,495.413h-26.54c-0.305,0-0.553-0.248-0.553-0.553v-17.693
			c0-0.305,0.248-0.553,0.553-0.553h26.54c5.183,0,9.4,4.216,9.4,9.4S323.11,495.413,317.927,495.413z M468.873,344.466
			c0,5.183-4.217,9.4-9.4,9.4h-9.4v-71.879h18.799V344.466z"/>
	</g>
</g>
<g>
	<g>
		<path d="M309.08,300.786c-9.452,0-17.14,7.689-17.14,17.14s7.689,17.14,17.14,17.14s17.14-7.69,17.14-17.14
			C326.22,308.476,318.531,300.786,309.08,300.786z"/>
	</g>
</g>
<g>
	<g>
		<path d="M256,300.786c-9.452,0-17.14,7.689-17.14,17.14s7.689,17.14,17.14,17.14c9.452,0,17.14-7.69,17.14-17.14
			C273.14,308.476,265.452,300.786,256,300.786z"/>
	</g>
</g>
<g>
	<g>
		<path d="M326.773,230.013H185.227c-19.207,0-34.834,15.627-34.834,34.834v106.16c0,19.207,15.627,34.834,34.834,34.834H265.4
			v20.845c0,5.897,3.521,11.167,8.969,13.424c1.808,0.749,3.701,1.112,5.574,1.112c3.773,0,7.473-1.476,10.259-4.263l31.119-31.118
			h5.452c19.207,0,34.834-15.627,34.834-34.834v-106.16C361.607,245.639,345.98,230.013,326.773,230.013z M345.019,371.006
			c0,10.061-8.185,18.246-18.246,18.246h-8.888c-2.2,0-4.309,0.874-5.864,2.43l-30.034,30.034v-24.17
			c0-4.58-3.713-8.294-8.294-8.294h-88.467c-10.061,0-18.246-8.185-18.246-18.246v-106.16c0-10.061,8.185-18.246,18.246-18.246
			h141.546c10.061,0,18.246,8.185,18.246,18.246V371.006z"/>
	</g>
</g>
<g>
	<g>
		<path d="M202.92,300.786c-9.452,0-17.14,7.689-17.14,17.14s7.689,17.14,17.14,17.14s17.14-7.689,17.14-17.14
			S212.372,300.786,202.92,300.786z"/>
	</g>
</g>
</svg>