<?xml version="1.0" ?>
<!-- Uploaded to: SVG Repo, www.svgrepo.com, Generator: SVG Repo Mixer Tools -->
<svg fill="#000000" width="800px" height="800px" viewBox="0 0 32 32" xmlns="http://www.w3.org/2000/svg">
<g data-name="16. Money Bag" id="_16._Money_Bag">
<path d="M28.84,24.18A23.4,23.4,0,0,0,21.4,11.64a3,3,0,0,0-1-5.6L22,1.32a1,1,0,0,0-.14-.9A1,1,0,0,0,21,0H11a1,1,0,0,0-.81.42,1,1,0,0,0-.14.9L11.63,6a3,3,0,0,0-1,5.6A23.4,23.4,0,0,0,3.15,24.2,6.57,6.57,0,0,0,3,25.59,6.41,6.41,0,0,0,9.41,32H22.59A6.41,6.41,0,0,0,29,25.59,6.29,6.29,0,0,0,28.84,24.18ZM19.61,2,18.28,6H13.72L12.39,2ZM12,8h8a1,1,0,0,1,0,2H12a1,1,0,0,1,0-2ZM22.59,30H9.41A4.42,4.42,0,0,1,5,25.59a4.82,4.82,0,0,1,.11-1A21.45,21.45,0,0,1,13.32,12h5.36A21.49,21.49,0,0,1,26.9,24.64a5,5,0,0,1,.1.95A4.42,4.42,0,0,1,22.59,30Z"/>
<path d="M16,18h2a1,1,0,0,0,0-2H17a1,1,0,0,0-2,0v.18A3,3,0,0,0,16,22a1,1,0,0,1,0,2H14a1,1,0,0,0,0,2h1a1,1,0,0,0,2,0v-.18A3,3,0,0,0,16,20a1,1,0,0,1,0-2Z"/>
</g>
</svg>