<?xml version="1.0" encoding="iso-8859-1"?>
<!-- Uploaded to: SVG Repo, www.svgrepo.com, Generator: SVG Repo Mixer Tools -->
<svg height="800px" width="800px" version="1.1" id="Layer_1" xmlns="http://www.w3.org/2000/svg" xmlns:xlink="http://www.w3.org/1999/xlink" 
	 viewBox="0 0 503.467 503.467" xml:space="preserve">
<path style="fill:#ECF4F7;" d="M139.947,499.201L250.88,388.267l0,0l-42.667-17.067L498.347,4.267l-358.4,341.333V499.201
	L139.947,499.201z M498.347,4.267l-358.4,341.333l-119.467-51.2c-23.04-10.24-22.187-30.72,0-42.667L498.347,4.267z M498.347,4.267
	l-87.04,409.6c-4.267,20.48-20.48,29.013-40.96,20.48L250.88,387.414l-42.667-17.067L498.347,4.267z"/>
<path style="fill:#51565F;" d="M139.947,503.467c-0.853,0-1.707,0-1.707-0.853l0,0c-0.853-0.853-1.707-0.853-1.707-1.707v-0.853
	V499.2V345.6c0-0.853,0-0.853,0-1.707c0-0.853,0.853-0.853,0.853-1.707L474.454,21.333L23.04,255.147
	c-9.387,5.12-14.507,11.947-14.507,18.773c0,5.973,5.12,12.8,14.507,16.213l92.16,39.253c2.56,0.853,3.413,3.413,2.56,5.973
	c-0.853,2.56-3.413,3.413-5.973,2.56l-92.16-39.253C7.68,293.547,0,284.16,0,274.773c0-10.24,6.827-19.627,19.627-26.453
	L497.494,0.853l0,0l0,0l0,0c0.853,0,0.853-0.853,1.707-0.853l0,0l0,0l0,0c0.853,0,1.707,0,1.707,0c0.853,0,0.853,0.853,0.853,0.853
	l0.853,0.853c0,0.853,0.853,0.853,0.853,1.707l0,0v0.853l-87.04,409.6c-2.56,11.093-7.68,18.773-16.213,23.893
	c-8.533,4.267-19.627,4.267-30.72,0l-131.413-51.2c-2.56-0.853-3.413-3.413-2.56-5.12c0.853-2.56,3.413-3.413,5.12-2.56
	l131.413,51.2c8.533,3.413,17.067,3.413,23.04,0c5.973-3.413,10.24-9.387,11.947-17.92l82.773-391.68L211.627,372.907l-54.613,102.4
	l64.853-64.853c1.707-1.707,4.267-1.707,5.973,0c1.707,1.707,1.707,4.267,0,5.973l-85.333,85.333c0,0.853-0.853,0.853-1.707,0.853
	l0,0l0,0l0,0l0,0l0,0l0,0C140.801,503.467,139.947,503.467,139.947,503.467z M144.214,347.307v134.827l60.587-112.64
	c0,0,0,0,0-0.853l0,0L457.387,49.494L144.214,347.307z"/>
</svg>