<?xml version="1.0" encoding="iso-8859-1"?>
<!-- Uploaded to: SVG Repo, www.svgrepo.com, Generator: SVG Repo Mixer Tools -->
<svg version="1.1" id="Layer_1" xmlns="http://www.w3.org/2000/svg" xmlns:xlink="http://www.w3.org/1999/xlink" 
	 viewBox="0 0 511.995 511.995" xml:space="preserve">
<g>
	<path style="fill:#E66032;" d="M502.194,498.768L502.194,498.768c-13.165,13.292-34.602,13.394-47.895,0.229l-44.931-44.5
		l47.666-48.123l44.931,44.5C515.249,464.039,515.351,485.476,502.194,498.768z"/>
	
		<rect x="336.18" y="312.801" transform="matrix(-0.7037 0.7105 -0.7105 -0.7037 891.791 363.7596)" style="fill:#E66032;" width="67.732" height="110.064"/>
</g>
<g>
	
		<rect x="387.306" y="401.539" transform="matrix(-0.7037 0.7105 -0.7105 -0.7037 1014.8741 413.7077)" style="fill:#FCB641;" width="67.732" height="33.866"/>
	<ellipse style="fill:#FCB641;" cx="195.745" cy="198.935" rx="195.745" ry="195.745"/>
</g>
<ellipse style="fill:#FFFFFF;" cx="195.745" cy="198.935" rx="138.35" ry="138.35"/>
<ellipse transform="matrix(-0.0048 -1 1 -0.0048 -8.2204 401.4799)" style="fill:#FEF0D9;" cx="195.669" cy="204.83" rx="67.047" ry="107.381"/>
<g>
	<ellipse style="fill:#E66032;" cx="196.688" cy="203.835" rx="33.765" ry="33.765"/>
	
		<rect x="405.179" y="25.242" transform="matrix(-1 0.0048 -0.0048 -1 852.8475 65.3701)" style="fill:#E66032;" width="42.333" height="16.933"/>
	
		<rect x="362.848" y="25.494" transform="matrix(-1 0.0048 -0.0048 -1 751.2543 66.1185)" style="fill:#E66032;" width="25.4" height="16.933"/>
	
		<rect x="465.662" y="278.954" transform="matrix(-1 0.0048 -0.0048 -1 975.0305 572.5002)" style="fill:#E66032;" width="42.333" height="16.933"/>
	
		<rect x="423.331" y="279.197" transform="matrix(-1 0.0048 -0.0048 -1 873.4372 573.2317)" style="fill:#E66032;" width="25.4" height="16.933"/>
	
		<rect x="42.95" y="407.979" transform="matrix(-1 0.0048 -0.0048 -1 130.2314 832.5792)" style="fill:#E66032;" width="42.333" height="16.933"/>
	
		<rect x="0.619" y="408.223" transform="matrix(-1 0.0048 -0.0048 -1 28.638 833.3107)" style="fill:#E66032;" width="25.4" height="16.933"/>
	
		<rect x="263.334" y="457.72" transform="matrix(-1 0.0048 -0.0048 -1 571.2344 931.0026)" style="fill:#E66032;" width="42.333" height="16.933"/>
	
		<rect x="220.994" y="457.973" transform="matrix(-1 0.0048 -0.0048 -1 469.6242 931.7511)" style="fill:#E66032;" width="25.4" height="16.933"/>
</g>
</svg>